<svg width="45" height="45" viewBox="0 0 45 45" fill="none" xmlns="http://www.w3.org/2000/svg">
<path d="M22.5 35C23.2083 35 23.8021 34.7604 24.2813 34.2812C24.7604 33.8021 25 33.2083 25 32.5C25 31.7917 24.7604 31.1979 24.2813 30.7188C23.8021 30.2396 23.2083 30 22.5 30C21.7917 30 21.1979 30.2396 20.7188 30.7188C20.2396 31.1979 20 31.7917 20 32.5C20 33.2083 20.2396 33.8021 20.7188 34.2812C21.1979 34.7604 21.7917 35 22.5 35ZM20 25H25V10H20V25ZM13.125 45L0 31.875V13.125L13.125 0H31.875L45 13.125V31.875L31.875 45H13.125ZM15.25 40H29.75L40 29.75V15.25L29.75 5H15.25L5 15.25V29.75L15.25 40Z" fill="#EA4335"/>
</svg>
