<svg viewBox="0 0 80 64" fill="none" xmlns="http://www.w3.org/2000/svg">
<path d="M3.16667 34.3333C2.16667 32.3333 1.38889 30.3056 0.833333 28.25C0.277778 26.1944 0 24.1111 0 22C0 15.7778 2.11111 10.5556 6.33333 6.33333C10.5556 2.11111 15.7778 0 22 0C25.5 0 28.8333 0.736111 32 2.20833C35.1667 3.68056 37.8333 5.72222 40 8.33333C42.1667 5.72222 44.8333 3.68056 48 2.20833C51.1667 0.736111 54.5 0 58 0C64.2222 0 69.4444 2.11111 73.6667 6.33333C77.8889 10.5556 80 15.7778 80 22C80 24.1111 79.7222 26.1944 79.1667 28.25C78.6111 30.3056 77.8333 32.3333 76.8333 34.3333C76.2222 33.2778 75.5 32.3333 74.6667 31.5C73.8333 30.6667 72.8611 30 71.75 29.5C72.25 28.2222 72.6389 26.9722 72.9167 25.75C73.1944 24.5278 73.3333 23.2778 73.3333 22C73.3333 17.6667 71.8611 14.0278 68.9167 11.0833C65.9722 8.13889 62.3333 6.66667 58 6.66667C53.5 6.66667 50.0417 7.90278 47.625 10.375C45.2083 12.8472 42.6667 15.6111 40 18.6667C37.3333 15.5556 34.7917 12.7778 32.375 10.3333C29.9583 7.88889 26.5 6.66667 22 6.66667C17.6667 6.66667 14.0278 8.13889 11.0833 11.0833C8.13889 14.0278 6.66667 17.6667 6.66667 22C6.66667 23.2778 6.80556 24.5278 7.08333 25.75C7.36111 26.9722 7.75 28.2222 8.25 29.5C7.13889 30 6.16667 30.6667 5.33333 31.5C4.5 32.3333 3.77778 33.2778 3.16667 34.3333ZM0 63.3333V58.0833C0 55.6389 1.23611 53.6806 3.70833 52.2083C6.18056 50.7361 9.38889 50 13.3333 50C14.0556 50 14.75 50.0139 15.4167 50.0417C16.0833 50.0694 16.7222 50.1389 17.3333 50.25C16.5556 51.3611 15.9722 52.5556 15.5833 53.8333C15.1944 55.1111 15 56.4722 15 57.9167V63.3333H0ZM20 63.3333V57.9167C20 54.3056 21.8472 51.3889 25.5417 49.1667C29.2361 46.9444 34.0556 45.8333 40 45.8333C46 45.8333 50.8333 46.9444 54.5 49.1667C58.1667 51.3889 60 54.3056 60 57.9167V63.3333H20ZM65 63.3333V57.9167C65 56.4722 64.8194 55.1111 64.4583 53.8333C64.0972 52.5556 63.5556 51.3611 62.8333 50.25C63.4444 50.1389 64.0694 50.0694 64.7083 50.0417C65.3472 50.0139 66 50 66.6667 50C70.6667 50 73.8889 50.7361 76.3333 52.2083C78.7778 53.6806 80 55.6389 80 58.0833V63.3333H65ZM40 52.5C36.8333 52.5 34 52.9167 31.5 53.75C29 54.5833 27.5278 55.5556 27.0833 56.6667H53C52.5 55.5556 51.0139 54.5833 48.5417 53.75C46.0694 52.9167 43.2222 52.5 40 52.5ZM13.3333 46.6667C11.5 46.6667 9.93056 46.0139 8.625 44.7083C7.31944 43.4028 6.66667 41.8333 6.66667 40C6.66667 38.1111 7.31944 36.5278 8.625 35.25C9.93056 33.9722 11.5 33.3333 13.3333 33.3333C15.2222 33.3333 16.8056 33.9722 18.0833 35.25C19.3611 36.5278 20 38.1111 20 40C20 41.8333 19.3611 43.4028 18.0833 44.7083C16.8056 46.0139 15.2222 46.6667 13.3333 46.6667ZM66.6667 46.6667C64.8333 46.6667 63.2639 46.0139 61.9583 44.7083C60.6528 43.4028 60 41.8333 60 40C60 38.1111 60.6528 36.5278 61.9583 35.25C63.2639 33.9722 64.8333 33.3333 66.6667 33.3333C68.5556 33.3333 70.1389 33.9722 71.4167 35.25C72.6944 36.5278 73.3333 38.1111 73.3333 40C73.3333 41.8333 72.6944 43.4028 71.4167 44.7083C70.1389 46.0139 68.5556 46.6667 66.6667 46.6667ZM40 43.3333C37.2222 43.3333 34.8611 42.3611 32.9167 40.4167C30.9722 38.4722 30 36.1111 30 33.3333C30 30.5 30.9722 28.125 32.9167 26.2083C34.8611 24.2917 37.2222 23.3333 40 23.3333C42.8333 23.3333 45.2083 24.2917 47.125 26.2083C49.0417 28.125 50 30.5 50 33.3333C50 36.1111 49.0417 38.4722 47.125 40.4167C45.2083 42.3611 42.8333 43.3333 40 43.3333ZM40 30C39.0556 30 38.2639 30.3194 37.625 30.9583C36.9861 31.5972 36.6667 32.3889 36.6667 33.3333C36.6667 34.2778 36.9861 35.0694 37.625 35.7083C38.2639 36.3472 39.0556 36.6667 40 36.6667C40.9444 36.6667 41.7361 36.3472 42.375 35.7083C43.0139 35.0694 43.3333 34.2778 43.3333 33.3333C43.3333 32.3889 43.0139 31.5972 42.375 30.9583C41.7361 30.3194 40.9444 30 40 30Z" fill="white"/>
</svg>
