<svg viewBox="0 0 74 67" fill="none" xmlns="http://www.w3.org/2000/svg">
<path d="M36.2833 60C36.5056 60 36.7278 59.9444 36.95 59.8333C37.1722 59.7222 37.3389 59.6111 37.45 59.5L64.7833 32.1667C65.45 31.5 65.9361 30.75 66.2417 29.9167C66.5472 29.0833 66.7 28.25 66.7 27.4167C66.7 26.5278 66.5472 25.6806 66.2417 24.875C65.9361 24.0694 65.45 23.3611 64.7833 22.75L50.6167 8.58333C50.0056 7.91667 49.2972 7.43056 48.4917 7.125C47.6861 6.81944 46.8389 6.66667 45.95 6.66667C45.1167 6.66667 44.2833 6.81944 43.45 7.125C42.6167 7.43056 41.8667 7.91667 41.2 8.58333L40.2833 9.5L46.45 15.75C47.2833 16.5278 47.8944 17.4167 48.2833 18.4167C48.6722 19.4167 48.8667 20.4722 48.8667 21.5833C48.8667 23.9167 48.075 25.875 46.4917 27.4583C44.9083 29.0417 42.95 29.8333 40.6167 29.8333C39.5056 29.8333 38.4361 29.6389 37.4083 29.25C36.3806 28.8611 35.4778 28.2778 34.7 27.5L28.45 21.3333L13.8667 35.9167C13.7 36.0833 13.575 36.2639 13.4917 36.4583C13.4083 36.6528 13.3667 36.8611 13.3667 37.0833C13.3667 37.5278 13.5333 37.9306 13.8667 38.2917C14.2 38.6528 14.5889 38.8333 15.0333 38.8333C15.2556 38.8333 15.4778 38.7778 15.7 38.6667C15.9222 38.5556 16.0889 38.4444 16.2 38.3333L27.5333 27L32.2 31.6667L20.95 43C20.7833 43.1667 20.6583 43.3472 20.575 43.5417C20.4917 43.7361 20.45 43.9444 20.45 44.1667C20.45 44.6111 20.6167 45 20.95 45.3333C21.2833 45.6667 21.6722 45.8333 22.1167 45.8333C22.3389 45.8333 22.5611 45.7778 22.7833 45.6667C23.0056 45.5556 23.1722 45.4444 23.2833 45.3333L34.6167 34.0833L39.2833 38.75L28.0333 50.0833C27.8667 50.1944 27.7417 50.3611 27.6583 50.5833C27.575 50.8056 27.5333 51.0278 27.5333 51.25C27.5333 51.6944 27.7 52.0833 28.0333 52.4167C28.3667 52.75 28.7556 52.9167 29.2 52.9167C29.4222 52.9167 29.6306 52.875 29.825 52.7917C30.0194 52.7083 30.2 52.5833 30.3667 52.4167L41.7 41.1667L46.3667 45.8333L35.0333 57.1667C34.8667 57.3333 34.7417 57.5139 34.6583 57.7083C34.575 57.9028 34.5333 58.1111 34.5333 58.3333C34.5333 58.7778 34.7139 59.1667 35.075 59.5C35.4361 59.8333 35.8389 60 36.2833 60ZM36.2 66.6667C34.1444 66.6667 32.325 65.9861 30.7417 64.625C29.1583 63.2639 28.2278 61.5556 27.95 59.5C26.0611 59.2222 24.4778 58.4444 23.2 57.1667C21.9222 55.8889 21.1444 54.3056 20.8667 52.4167C18.9778 52.1389 17.4083 51.3472 16.1583 50.0417C14.9083 48.7361 14.1444 47.1667 13.8667 45.3333C11.7556 45.0556 10.0333 44.1389 8.7 42.5833C7.36667 41.0278 6.7 39.1944 6.7 37.0833C6.7 35.9722 6.90833 34.9028 7.325 33.875C7.74167 32.8472 8.33889 31.9444 9.11667 31.1667L28.45 11.9167L39.3667 22.8333C39.4778 23 39.6444 23.125 39.8667 23.2083C40.0889 23.2917 40.3111 23.3333 40.5333 23.3333C41.0333 23.3333 41.45 23.1806 41.7833 22.875C42.1167 22.5694 42.2833 22.1667 42.2833 21.6667C42.2833 21.4444 42.2417 21.2222 42.1583 21C42.075 20.7778 41.95 20.6111 41.7833 20.5L29.8667 8.58333C29.2556 7.91667 28.5472 7.43056 27.7417 7.125C26.9361 6.81944 26.0889 6.66667 25.2 6.66667C24.3667 6.66667 23.5333 6.81944 22.7 7.125C21.8667 7.43056 21.1167 7.91667 20.45 8.58333L8.7 20.4167C8.2 20.9167 7.78333 21.5 7.45 22.1667C7.11667 22.8333 6.89444 23.5 6.78333 24.1667C6.67222 24.8333 6.67222 25.5139 6.78333 26.2083C6.89444 26.9028 7.11667 27.5556 7.45 28.1667L2.61667 33C1.67222 31.7222 0.977778 30.3194 0.533333 28.7917C0.0888889 27.2639 -0.0777778 25.7222 0.0333333 24.1667C0.144444 22.6111 0.533333 21.0972 1.2 19.625C1.86667 18.1528 2.78333 16.8333 3.95 15.6667L15.7 3.91667C17.0333 2.63889 18.5194 1.66667 20.1583 1C21.7972 0.333333 23.4778 0 25.2 0C26.9222 0 28.6028 0.333333 30.2417 1C31.8806 1.66667 33.3389 2.63889 34.6167 3.91667L35.5333 4.83333L36.45 3.91667C37.7833 2.63889 39.2694 1.66667 40.9083 1C42.5472 0.333333 44.2278 0 45.95 0C47.6722 0 49.3528 0.333333 50.9917 1C52.6306 1.66667 54.0889 2.63889 55.3667 3.91667L69.45 18C70.7278 19.2778 71.7 20.75 72.3667 22.4167C73.0333 24.0833 73.3667 25.7778 73.3667 27.5C73.3667 29.2222 73.0333 30.9028 72.3667 32.5417C71.7 34.1806 70.7278 35.6389 69.45 36.9167L42.1167 64.1667C41.3389 64.9444 40.4361 65.5556 39.4083 66C38.3806 66.4445 37.3111 66.6667 36.2 66.6667Z" fill="#141414"/>
</svg>
