<svg width="27" height="27" viewBox="0 0 27 27" fill="none" xmlns="http://www.w3.org/2000/svg">
<path d="M8.46667 21.011C8.74822 21.011 8.96678 20.9277 9.12234 20.761C9.27789 20.5943 9.37045 20.3926 9.4 20.1557C9.44445 19.8297 9.49078 19.5186 9.539 19.2223C9.587 18.9259 9.63322 18.6443 9.67767 18.3777C9.72211 18.1481 9.761 17.8963 9.79433 17.6223C9.82767 17.3481 9.88511 17.0296 9.96667 16.6667C10.5222 16.5556 11.0703 16.4611 11.611 16.3833C12.1519 16.3056 12.6779 16.237 13.189 16.1777C13.7446 16.111 14.2871 16.061 14.8167 16.0277C15.3462 15.9943 15.8592 15.9554 16.3557 15.911C16.4668 16.3852 16.5686 16.8408 16.661 17.2777C16.7537 17.7148 16.8667 18.1444 17 18.5667C17.1778 19.0778 17.3722 19.5074 17.5833 19.8557C17.7944 20.2037 18.0556 20.4999 18.3667 20.7443C18.6038 20.9297 18.8574 21.0408 19.1277 21.0777C19.3981 21.1148 19.637 21.0741 19.8443 20.9557C20.0741 20.8446 20.1963 20.6779 20.211 20.4557C20.2259 20.2334 20.1519 19.926 19.989 19.5333C19.8186 19.1556 19.6759 18.8019 19.561 18.4723C19.4463 18.1426 19.3408 17.8296 19.2443 17.5333C19.1481 17.2073 19.063 16.9054 18.989 16.6277C18.9148 16.3499 18.8443 16.074 18.7777 15.8C18.963 15.7927 19.1501 15.7723 19.339 15.739C19.5279 15.7057 19.6779 15.6593 19.789 15.6C20.0926 15.526 20.3166 15.3908 20.461 15.1943C20.6054 14.9981 20.6777 14.7814 20.6777 14.5443C20.6777 14.2852 20.5907 14.0686 20.4167 13.8943C20.2427 13.7203 19.9963 13.6148 19.6777 13.5777C19.5519 13.5408 19.3686 13.5168 19.1277 13.5057C18.887 13.4946 18.6297 13.5038 18.3557 13.5333C18.3112 13.1184 18.263 12.7092 18.211 12.3057C18.1592 11.9019 18.1 11.4926 18.0333 11.0777C17.9667 10.6259 17.8981 10.2 17.8277 9.8C17.7574 9.4 17.6741 9.01111 17.5777 8.63333C17.4592 8.14445 17.2889 7.70922 17.0667 7.32767C16.8444 6.94633 16.5778 6.62233 16.2667 6.35567C15.9927 6.11122 15.6946 5.92789 15.3723 5.80567C15.0501 5.68344 14.7149 5.62233 14.3667 5.62233C13.8629 5.62233 13.4037 5.71489 12.989 5.9C12.5741 6.08511 12.1667 6.37767 11.7667 6.77767C11.5371 7.02211 11.3001 7.29811 11.0557 7.60567C10.8112 7.913 10.5557 8.27778 10.289 8.7C10.1408 8.52222 9.99445 8.39633 9.85 8.32233C9.70556 8.24811 9.537 8.211 9.34433 8.211C9.14433 8.211 8.97956 8.26656 8.85 8.37767C8.72045 8.48878 8.65567 8.64811 8.65567 8.85567C8.65567 9.40367 8.62233 9.94067 8.55567 10.4667C8.489 10.9927 8.39633 11.5223 8.27767 12.0557C8.18145 12.5297 8.07778 13.0019 7.96667 13.4723C7.85556 13.9426 7.74445 14.4148 7.63333 14.889C7.35933 14.9186 7.12411 14.9574 6.92767 15.0057C6.73145 15.0537 6.57411 15.1148 6.45567 15.189C6.30745 15.2703 6.19811 15.3796 6.12767 15.5167C6.05744 15.6538 6.02233 15.8112 6.02233 15.989C6.02233 16.1592 6.04456 16.2999 6.089 16.411C6.13345 16.5221 6.21122 16.6184 6.32233 16.7C6.43345 16.7816 6.57411 16.839 6.74433 16.8723C6.91478 16.9057 7.12222 16.9186 7.36667 16.911C7.35933 17.237 7.339 17.5537 7.30567 17.861C7.27233 18.1686 7.25567 18.4704 7.25567 18.7667C7.25567 19.1296 7.27045 19.4443 7.3 19.711C7.32956 19.9777 7.38145 20.1926 7.45567 20.3557C7.54456 20.5926 7.67233 20.761 7.839 20.861C8.00567 20.961 8.21489 21.011 8.46667 21.011ZM10.589 14.2C10.7668 13.526 10.9593 12.8982 11.1667 12.3167C11.374 11.7351 11.6037 11.174 11.8557 10.6333C12.1519 9.974 12.4889 9.36289 12.8667 8.8C13.2444 8.23711 13.7 7.95567 14.2333 7.95567C14.5667 7.95567 14.8444 8.14822 15.0667 8.53333C15.2889 8.91845 15.463 9.49622 15.589 10.2667C15.6703 10.7704 15.7296 11.326 15.7667 11.9333C15.8038 12.5407 15.8519 13.0962 15.911 13.6C15.4741 13.6371 15.0334 13.6723 14.589 13.7057C14.1446 13.739 13.6963 13.7779 13.2443 13.8223C12.8074 13.8668 12.3686 13.9204 11.9277 13.9833C11.487 14.0462 11.0408 14.1184 10.589 14.2ZM2.22233 26.6667C1.62233 26.6667 1.10189 26.4463 0.661 26.0057C0.220333 25.5648 0 25.0443 0 24.4443V2.22233C0 1.62233 0.220333 1.10189 0.661 0.661001C1.10189 0.220334 1.62233 0 2.22233 0H24.4443C25.0443 0 25.5648 0.220334 26.0057 0.661001C26.4463 1.10189 26.6667 1.62233 26.6667 2.22233V24.4443C26.6667 25.0443 26.4463 25.5648 26.0057 26.0057C25.5648 26.4463 25.0443 26.6667 24.4443 26.6667H2.22233ZM2.22233 24.4443H24.4443V2.22233H2.22233V24.4443Z" fill="#1C1B1F"/>
</svg>
