<svg width="203" height="202" viewBox="0 0 203 202" fill="none" xmlns="http://www.w3.org/2000/svg">
<g clip-path="url(#clip0_219_10927)">
<path d="M709 -33H-41V467H709V-33Z" fill="white"/>
<path d="M202.824 -0.354996H0.46875V202H202.824V-0.354996Z" fill="#F5DECF"/>
<path d="M104.414 41.177C87.3438 47.968 69.0478 51.581 52.5058 59.573C35.9638 67.563 20.6598 81.386 17.6468 99.508C15.6508 111.521 19.2898 123.732 23.7128 135.078C28.1668 146.512 33.8438 158.094 43.7178 165.379C57.0728 175.231 75.1998 175.189 91.6438 172.963C110.308 170.437 128.971 165.499 144.919 155.479C170.107 139.653 186.793 111.063 188.184 81.351C188.6 72.457 187.702 63.397 184.503 55.087C181.305 46.778 175.679 39.246 168.03 34.689C158.551 29.043 146.758 28.384 135.943 30.564C125.127 32.745 114.851 37.025 104.414 41.177Z" fill="#EDCBB4"/>
<path opacity="0.15" d="M179.772 202C179.628 187.887 178.772 173.741 174.856 160.225C171.656 149.181 166.142 138.502 158.298 130.216C154.569 126.278 150.321 122.874 145.532 120.239C144.551 119.699 143.556 119.198 142.55 118.73C142.581 115.557 142.334 112.488 141.822 109.502C141.335 106.66 138.984 104.491 136.114 104.206C129.781 103.579 123.439 103.441 117.156 103.792C116.907 101.942 116.625 100.097 116.284 98.262C120.996 97.808 125.615 96.519 129.34 93.675C130.955 92.442 132.323 90.958 133.472 89.309C136.242 91.122 139.427 92.32 142.724 92.516C146.592 92.747 150.595 91.535 153.458 88.923C156.824 85.852 158.363 80.968 157.553 76.484C156.743 72 153.677 68.025 149.633 65.926C148.396 65.284 147.072 64.838 145.713 64.541C145.896 63.878 146.057 63.207 146.192 62.53C147.284 57.06 146.53 50.988 143.046 46.63C143.744 40.84 142.043 34.461 138.41 29.7C134.777 24.94 129.387 21.71 123.661 19.957C117.934 18.204 111.864 17.843 105.88 18.06C102.268 18.19 98.6232 18.536 95.2032 19.703C91.7832 20.871 88.5742 22.928 86.5592 25.926C86.5482 24.275 86.3522 22.982 85.9012 21.785C85.7712 21.44 85.5792 21.065 85.2242 20.965C84.5872 20.785 84.1442 21.586 83.9932 22.23C83.5682 24.039 83.3682 25.902 83.3982 27.761C82.8992 25.654 82.4392 24.266 81.7442 23.008C81.5162 22.594 81.1942 22.149 80.7232 22.11C80.2672 22.072 79.8622 22.459 79.7202 22.895C79.5792 23.33 79.6392 23.803 79.7002 24.257C79.9702 26.273 80.2422 28.289 80.5132 30.303C77.3722 28.057 73.8462 29.24 71.9142 31.535C69.9812 33.831 69.3212 36.928 69.0202 39.912C68.2942 47.092 69.3392 54.466 72.4362 61.55C70.6052 61.866 68.8282 62.465 67.2122 63.386C63.2532 65.641 60.3442 69.733 59.7112 74.245C59.0762 78.757 60.8052 83.577 64.2892 86.514C67.2522 89.012 71.2982 90.067 75.1542 89.685C78.2352 89.379 81.1802 88.196 83.7582 86.469C84.2212 87.128 84.7102 87.771 85.2422 88.385C89.3932 93.17 95.2262 95.976 101.474 97.367C101.247 100.2 101.019 103.034 100.792 105.867C92.8602 107.442 85.1242 109.831 77.7402 113.075C75.1632 114.207 73.6122 116.888 73.9152 119.686C74.0042 120.512 74.1392 121.34 74.3062 122.168C67.2752 125.131 60.6862 128.986 55.0942 134.149C54.6502 134.559 54.2202 134.984 53.7912 135.408C45.0912 144.006 39.4682 155.397 36.0732 167.177C32.8192 178.467 31.4652 190.194 30.2852 201.895L32.8592 202H179.772Z" fill="#37474F"/>
<path d="M169.795 154.417C166.143 143.514 160.195 133.072 152.016 125.115C146.631 150.325 145.824 176.502 149.615 202H176.7C176.05 185.908 174.903 169.669 169.795 154.417Z" fill="#E7F6FF"/>
<path d="M47.8096 134.602C39.4706 143.551 34.3216 155.163 31.4136 167.073C28.6266 178.488 27.7566 190.26 27.0586 202H55.6826C57.1186 179.304 54.4546 156.351 47.8096 134.602Z" fill="#E7F6FF"/>
<path d="M138.849 115.672C122.051 107.312 101.898 109.227 83.8956 114.522C71.1056 118.283 58.4736 123.852 49.0586 133.291C48.6316 133.719 48.2196 134.161 47.8086 134.602L55.6816 202H149.614L152.015 125.115C148.128 121.333 143.742 118.107 138.849 115.672Z" fill="#5B93F4"/>
<path d="M138.048 144.77C139.293 143.517 139.75 140.686 138.08 139.472C136.652 138.434 134.455 138.62 133.255 139.916C132.055 141.212 132.055 143.455 133.288 144.72C134.521 145.984 136.804 146.023 138.048 144.77Z" fill="white"/>
<path d="M78.3288 197.253C76.9008 196.215 74.7038 196.401 73.5038 197.698C72.4498 198.836 72.3238 200.705 73.1448 202H78.7318C79.6228 200.601 79.7858 198.313 78.3288 197.253Z" fill="white"/>
<path d="M63.8071 183.866C65.0521 182.613 65.5091 179.782 63.8381 178.568C62.4101 177.53 60.2131 177.716 59.0131 179.012C57.8131 180.308 57.8131 182.551 59.0461 183.816C60.2791 185.08 62.5621 185.119 63.8071 183.866Z" fill="white"/>
<path d="M73.5052 160.369C72.3052 161.665 72.3052 163.908 73.5392 165.173C74.7712 166.438 77.0542 166.477 78.2992 165.224C79.5442 163.971 80.0012 161.14 78.3312 159.926C76.9022 158.887 74.7052 159.074 73.5052 160.369Z" fill="white"/>
<path d="M62.0325 141.35C60.8325 142.646 60.8325 144.889 62.0665 146.154C63.2985 147.419 65.5815 147.458 66.8265 146.205C68.0715 144.952 68.5285 142.121 66.8575 140.907C65.4295 139.868 63.2325 140.054 62.0325 141.35Z" fill="white"/>
<path d="M113.236 177.577C112.036 178.873 112.036 181.116 113.269 182.381C114.501 183.646 116.783 183.685 118.028 182.432C119.274 181.179 119.731 178.348 118.061 177.134C116.631 176.096 114.435 176.282 113.236 177.577Z" fill="white"/>
<path d="M128.404 158.935C127.204 160.231 127.204 162.474 128.437 163.739C129.669 165.004 131.952 165.043 133.197 163.79C134.442 162.537 134.899 159.706 133.229 158.492C131.8 157.454 129.604 157.64 128.404 158.935Z" fill="white"/>
<path d="M136.63 197.253C135.202 196.215 133.005 196.401 131.805 197.698C130.751 198.836 130.625 200.705 131.446 202H137.033C137.924 200.601 138.087 198.313 136.63 197.253Z" fill="white"/>
<path d="M144.885 175.124C143.456 174.086 141.26 174.272 140.06 175.569C138.86 176.865 138.86 179.107 140.093 180.372C141.325 181.637 143.608 181.676 144.853 180.423C146.098 179.17 146.555 176.338 144.885 175.124Z" fill="white"/>
<path d="M108.794 197.253C107.366 196.215 105.169 196.401 103.969 197.698C102.915 198.836 102.789 200.705 103.61 202H109.197C110.088 200.601 110.251 198.313 108.794 197.253Z" fill="white"/>
<path d="M91.2044 183.866C92.4494 182.613 92.9064 179.782 91.2364 178.568C89.8084 177.53 87.6114 177.716 86.4114 179.012C85.2114 180.308 85.2114 182.551 86.4454 183.816C87.6764 185.08 89.9594 185.119 91.2044 183.866Z" fill="white"/>
<path d="M100.564 160.369C99.3639 161.665 99.3639 163.908 100.597 165.173C101.829 166.438 104.112 166.477 105.357 165.224C106.602 163.971 107.059 161.14 105.389 159.926C103.959 158.887 101.764 159.074 100.564 160.369Z" fill="white"/>
<path d="M86.4114 141.35C85.2114 142.646 85.2114 144.889 86.4454 146.154C87.6774 147.419 89.9604 147.458 91.2054 146.205C92.4504 144.952 92.9074 142.121 91.2374 140.907C89.8084 139.868 87.6114 140.054 86.4114 141.35Z" fill="white"/>
<path d="M109.866 144.719C111.098 145.984 113.381 146.023 114.626 144.77C115.871 143.517 116.328 140.686 114.658 139.472C113.23 138.434 111.033 138.62 109.833 139.916C108.633 141.212 108.633 143.455 109.866 144.719Z" fill="white"/>
<path d="M130.999 73.457C133.74 68.598 136.271 63.497 137.136 57.985C138.002 52.474 136.999 46.438 133.338 42.228C133.798 36.414 131.835 30.111 128.009 25.503C124.183 20.896 118.665 17.891 112.871 16.375C107.077 14.859 100.997 14.748 95.0275 15.211C91.4245 15.489 87.7965 15.985 84.4265 17.292C81.0575 18.6 77.9365 20.787 76.0455 23.866C75.9665 22.217 75.7175 20.933 75.2185 19.756C75.0745 19.417 74.8675 19.05 74.5085 18.964C73.8645 18.811 73.4555 19.628 73.3305 20.279C72.9805 22.104 72.8575 23.974 72.9635 25.829C72.3785 23.745 71.8615 22.377 71.1155 21.148C70.8705 20.744 70.5305 20.313 70.0585 20.293C69.6015 20.274 69.2125 20.677 69.0885 21.119C68.9655 21.56 69.0445 22.03 69.1245 22.48C69.4775 24.483 69.8315 26.486 70.1855 28.488C66.9545 26.373 63.4805 27.7 61.6445 30.072C59.8075 32.446 59.2755 35.567 59.0975 38.561C58.5145 48.317 61.1825 58.298 67.7755 67.266C87.2735 75.854 109.473 78.17 130.999 73.457Z" fill="#37474F"/>
<path d="M94.076 89.83C93.816 96.53 93.555 103.231 93.293 109.931C93.293 109.931 110.184 109.793 111.028 109.094C110.402 102.662 109.221 96.284 107.502 90.056L94.076 89.83Z" fill="#E8614E"/>
<path d="M109.416 98.243C108.874 95.492 108.249 92.758 107.504 90.056L94.0777 89.83C93.9577 92.906 93.8378 95.982 93.7188 99.058C98.9307 99.892 104.32 99.619 109.416 98.243Z" fill="#D15046"/>
<path d="M71.4148 60.205C67.0098 59.041 62.1198 59.673 58.2568 62.089C54.3938 64.505 51.6558 68.714 51.2088 73.248C50.7598 77.782 52.6858 82.527 56.2878 85.319C59.3508 87.693 63.4378 88.58 67.2738 88.04C71.1118 87.499 74.6908 85.606 77.5588 83L71.4148 60.205Z" fill="#E8614E"/>
<path d="M58.8828 73.776C60.6448 71.205 63.6188 69.504 66.7278 69.286" stroke="#37474F" stroke-miterlimit="10" stroke-linecap="round" stroke-linejoin="round"/>
<path d="M61.9102 70.891C62.5472 73.666 64.4562 76.162 67.0322 77.415" stroke="#37474F" stroke-miterlimit="10" stroke-linecap="round" stroke-linejoin="round"/>
<path d="M127.421 60.961C131.653 59.272 136.583 59.307 140.71 61.236C144.837 63.166 148.065 67.012 149.058 71.459C150.052 75.906 148.716 80.849 145.479 84.056C142.726 86.784 138.777 88.159 134.902 88.088C131.027 88.017 127.245 86.571 124.082 84.333L127.421 60.961Z" fill="#E8614E"/>
<path d="M141.507 72.914C139.445 70.575 136.289 69.246 133.176 69.407" stroke="#37474F" stroke-miterlimit="10" stroke-linecap="round" stroke-linejoin="round"/>
<path d="M138.148 70.417C137.853 73.248 136.259 75.958 133.855 77.513" stroke="#37474F" stroke-miterlimit="10" stroke-linecap="round" stroke-linejoin="round"/>
<path d="M125.942 50.236C127.801 57.021 129.673 63.92 129.541 70.953C129.409 77.986 126.988 85.3 121.578 89.796C116.791 93.773 110.316 95.076 104.097 95.311C94.3856 95.677 83.9626 93.396 77.2976 86.324C71.9356 80.632 69.7236 72.543 69.6616 64.725C69.5996 56.907 71.4796 49.218 73.9836 41.104C89.5946 48.912 107.958 51.071 125.942 50.236Z" fill="#E8614E"/>
<path d="M120.699 78.032C117.734 77.766 114.519 79.487 113.334 82.682C112.299 85.473 113.231 88.874 115.542 90.749C116.314 91.375 117.226 91.797 118.185 92.047C119.384 91.413 120.524 90.673 121.58 89.796C123.84 87.918 125.572 85.544 126.839 82.908C125.941 80.299 123.458 78.278 120.699 78.032Z" fill="#D15046"/>
<path d="M81.6046 78.032C78.6396 78.297 75.9696 80.6 75.2706 83.493C75.2476 83.588 75.2446 83.686 75.2266 83.782C75.8596 84.671 76.5446 85.524 77.2996 86.325C79.4856 88.644 82.0806 90.44 84.9176 91.804C85.5816 91.548 86.2086 91.2 86.7636 90.75C89.0746 88.875 90.0066 85.474 88.9716 82.683C87.7846 79.487 84.5696 77.767 81.6046 78.032Z" fill="#D15046"/>
<path d="M88.5312 75.273C96.2512 78.007 105.348 76.421 111.689 71.236" stroke="#37474F" stroke-miterlimit="10" stroke-linecap="round" stroke-linejoin="round"/>
<path d="M98.2874 63.437C97.8654 65.33 97.4444 67.223 97.0234 69.115C98.4454 68.759 99.8674 68.402 101.291 68.044" stroke="#37474F" stroke-miterlimit="10" stroke-linecap="round" stroke-linejoin="round"/>
<path d="M83.7105 60.078C83.1075 59.546 82.0815 59.595 81.5315 60.182C80.9805 60.768 80.9975 61.794 81.5675 62.362C82.1365 62.931 83.1625 62.946 83.7485 62.394C84.3335 61.843 84.4575 60.738 83.7105 60.078Z" fill="#37474F"/>
<path d="M118.019 60.078C117.416 59.546 116.39 59.595 115.84 60.182C115.289 60.768 115.306 61.794 115.876 62.362C116.445 62.931 117.471 62.946 118.057 62.394C118.642 61.843 118.766 60.738 118.019 60.078Z" fill="#37474F"/>
<path d="M129.419 59.715C128.683 54.3 124.249 49.645 118.875 48.647C113.503 47.651 107.692 50.402 105.062 55.194C104.278 56.621 103.805 58.19 103.617 59.793C102.196 59.071 100.589 58.715 99.0118 58.836C98.0358 58.914 97.0798 59.166 96.1868 59.569C95.3918 54.217 90.9958 49.636 85.6698 48.647C80.2968 47.651 74.4868 50.402 71.8568 55.194C69.2258 59.985 70.0218 66.365 73.7478 70.363C76.2198 73.017 79.8298 74.457 83.4298 74.457C85.2538 74.457 87.0758 74.087 88.7458 73.318C92.8048 71.449 95.6188 67.42 96.2048 63.049C97.0898 62.346 98.1468 61.899 99.2438 61.811C100.864 61.685 102.522 62.319 103.687 63.462C104.079 66.016 105.18 68.46 106.953 70.363C109.426 73.017 113.036 74.457 116.636 74.457C118.46 74.457 120.282 74.087 121.951 73.318C127.031 70.978 130.172 65.257 129.419 59.715ZM87.4978 70.608C83.7308 72.342 78.7578 71.363 75.9308 68.329C73.1038 65.295 72.4758 60.266 74.4728 56.63C76.2018 53.481 79.8688 51.431 83.4698 51.431C84.0258 51.431 84.5798 51.48 85.1248 51.581C89.2038 52.338 92.6998 56.008 93.2568 60.117C93.8378 64.391 91.4158 68.803 87.4978 70.608ZM120.702 70.608C116.936 72.341 111.962 71.363 109.136 68.329C106.308 65.294 105.681 60.265 107.678 56.63C109.407 53.481 113.075 51.431 116.675 51.431C117.231 51.431 117.785 51.48 118.331 51.581C122.409 52.338 125.905 56.008 126.463 60.118C127.043 64.391 124.62 68.803 120.702 70.608Z" fill="#8550F6"/>
<path opacity="0.15" d="M70.3386 131.2C78.5606 133.253 108.1 134.602 108.1 134.602C108.1 134.602 109.361 158.927 106.885 174.178C104.408 189.429 109.323 188.638 121.239 191.275C133.155 193.912 138.66 188.053 138.149 178.982C137.638 169.912 130.389 131.199 130.389 131.199C130.389 131.199 134.052 131.283 135.845 127.521C136.973 125.154 137.273 119.112 137.341 114.954C120.854 107.43 101.363 109.385 83.8966 114.522C77.0986 116.521 70.3516 119.039 64.1016 122.369C64.2886 125.704 65.5086 129.993 70.3386 131.2Z" fill="#37474F"/>
<path d="M110.594 125.679C113.662 142.482 114.524 159.684 113.296 177.545C112.992 181.966 116.171 185.907 120.577 186.378C124.998 186.848 129.469 186.448 133.522 185.308C136.988 184.334 139.403 181.161 139.469 177.562C139.829 157.923 135.816 138.209 127.77 120.288L110.594 125.679Z" fill="#F8D24E"/>
<path opacity="0.15" d="M127.77 120.286L110.594 125.678C111.144 128.689 111.598 131.717 112.006 134.755C117.339 134.358 125.748 133.314 131.884 130.589C130.657 127.1 129.285 123.661 127.77 120.286Z" fill="#37474F"/>
<path d="M130.569 127.88C111.826 132.354 92.0149 132.306 73.2969 127.731C71.1849 127.215 69.4609 125.687 68.7099 123.647C68.0289 121.794 67.5499 119.93 67.2709 118.066C66.8529 115.282 68.2919 112.54 70.8199 111.303C88.5709 102.617 108.622 98.88 128.78 100.04C131.659 100.206 134.098 102.277 134.701 105.096C135.855 110.482 136.179 116.161 135.475 122.323C135.168 125.017 133.208 127.251 130.569 127.88Z" fill="#F8D24E"/>
</g>
<defs>
<clipPath id="clip0_219_10927">
<rect width="203" height="202" fill="white"/>
</clipPath>
</defs>
</svg>
